<?xml version="1.0" encoding="UTF-8"?>
<svg xmlns="http://www.w3.org/2000/svg" style="stroke-dasharray:none; shape-rendering:auto; font-family:'Arial'; text-rendering:auto; fill-opacity:1; color-interpolation:auto; color-rendering:auto; font-size:12; fill:black; stroke:black; image-rendering:auto; stroke-miterlimit:10; stroke-linecap:square; stroke-linejoin:miter; font-style:normal; stroke-width:1; stroke-dashoffset:0; font-weight:normal; stroke-opacity:1;" contentScriptType="text/ecmascript" preserveAspectRatio="xMidYMid meet" zoomAndPan="magnify" version="1.0" contentStyleType="text/css" xml:xlink="http://www.w3.org/1999/xlink" width="851" height="451"><rect x="10" y="20" width="841" height="431" ry="0" rx="0" style="stroke:#000000; fill:#FFFFFF" /><rect x="40" y="163" width="811" height="143" ry="0" rx="0" style="stroke:#000000; fill:#D0DAAE" /><g componentSequence="4"><text x="-234" y="47" transform="rotate(270)" text-anchor="middle" style="font-weight:bold;font-size:10px;stroke:none; fill:#434343"><tspan dy="14" x="-234">Compras</tspan></text></g><rect x="40" y="306" width="811" height="145" ry="0" rx="0" style="stroke:#000000; fill:#ADC9AC" /><g componentSequence="3"><text x="-378" y="47" transform="rotate(270)" text-anchor="middle" style="font-weight:bold;font-size:10px;stroke:none; fill:#434343"><tspan dy="14" x="-378">Aprovador</tspan></text></g><rect x="40" y="20" width="811" height="143" ry="0" rx="0" style="stroke:#000000; fill:#82B0B7" /><g componentSequence="2"><text x="-91" y="47" transform="rotate(270)" text-anchor="middle" style="font-weight:bold;font-size:10px;stroke:none; fill:#434343"><tspan dy="14" x="-91">Solicicitante</tspan></text></g><g componentSequence="1"><text x="-235" y="17" transform="rotate(270)" text-anchor="middle" style="font-weight:bold;font-size:10px;stroke:none; fill:#434343"><tspan dy="14" x="-235">Solicitação de Compras</tspan></text></g><g sequence="5"><ellipse cx="147" cy="92" rx="17" ry="17" stroke-width="1" style="fill:url(#linearGradient66FF6696FF96B6FFB6_1587565715);" stroke="336633" /></g><g sequence="6"><rect x="226" y="229" width="106" height="70" ry="5" rx="5" style="fill:url(#linearGradientF8FBFEEDF5FCDEEDFAD4E7F8E2E5E9_1348972855);" stroke="191970" /></g><g componentSequence="6"><text x="279" y="244" text-anchor="middle" style="font-weight:bold;font-size:10px;stroke:none; fill:#333399"><tspan dy="14" x="279">Realizar</tspan><tspan dy="14" x="279">Cotação</tspan></text></g><g sequence="8"><rect x="420" y="365" width="106" height="70" ry="5" rx="5" style="fill:url(#linearGradientF8FBFEEDF5FCDEEDFAD4E7F8E2E5E9_1415069667);" stroke="191970" /></g><g componentSequence="8"><text x="473" y="380" text-anchor="middle" style="font-weight:bold;font-size:10px;stroke:none; fill:#333399"><tspan dy="14" x="473">Analisar</tspan><tspan dy="14" x="473">Cotação</tspan></text></g><g sequence="10"><polygon points=" 630 379 660 349 690 379 660 409 630 379" style="fill:url(#linearGradientFAFBFCFFFFCC_291158796);" stroke="000000" /></g><g componentSequence="10"><text x="660" y="419" text-anchor="middle" style="font-weight:bold;font-size:10px;stroke:none; fill:#333399"><tspan dy="14" x="660">Aprova</tspan><tspan dy="14" x="660">Compra?</tspan></text></g><g sequence="12"><ellipse cx="797" cy="400" rx="17" ry="17" stroke-width="3" style="fill:url(#linearGradientFF6666FF9696FFB6B6_1300394360);" stroke="993333" /></g><g sequence="14"><ellipse cx="659" cy="247" rx="17" ry="17" stroke-width="3" style="fill:url(#linearGradientFF6666FF9696FFB6B6_536973302);" stroke="993333" /></g><g sequence="14"><polygon points=" 650 243 655 238 660 243 665 238 670 243 665 248 670 253 665 258 660 253 655 258 650 253 655 248" style="stroke:none; fill:#993333" /></g><rect x="740" y="324" width="105" height="55" ry="5" rx="5" style="stroke:none; fill:#FFFFE0" /><g componentSequence="16"><text x="750" y="337" text-anchor="left" style="font-weight:bold;font-size:10px;stroke:none; fill:#000000"><tspan dy="14" x="750">Aprovado</tspan></text></g><path style="fill:none; stroke-width:1; stroke:#000000;" d="M760.0 324.0 L740.0 324.0 L740.0 379.0 L760.0 379.0" /><rect x="610" y="170" width="105" height="55" ry="5" rx="5" style="stroke:none; fill:#FFFFE0" /><g componentSequence="18"><text x="620" y="183" text-anchor="left" style="font-weight:bold;font-size:10px;stroke:none; fill:#000000"><tspan dy="14" x="620">Reprovado</tspan></text></g><path style="fill:none; stroke-width:1; stroke:#000000;" d="M630.0 170.0 L610.0 170.0 L610.0 225.0 L630.0 225.0" /><g componentSequence="7"><text x="157" y="226" style="font-size:10px;font-weight:none;stroke:none; fill:#333399" text-anchor="left" /></g><g componentSequence="9"><text x="463" y="263" style="font-size:10px;font-weight:none;stroke:none; fill:#333399" text-anchor="left" /></g><g componentSequence="11"><text x="588" y="400" style="font-size:10px;font-weight:none;stroke:none; fill:#333399" text-anchor="left" /></g><g componentSequence="13"><text x="745" y="400" style="font-size:10px;font-weight:none;stroke:none; fill:#333399" text-anchor="left" /></g><g componentSequence="15"><text x="669" y="307" style="font-size:10px;font-weight:none;stroke:none; fill:#333399" text-anchor="left" /></g><g componentSequence="17"><text x="805" y="381" style="font-size:10px;font-weight:none;stroke:none; fill:#333399" text-anchor="left" /></g><g componentSequence="19"><text x="670" y="227" style="font-size:10px;font-weight:none;stroke:none; fill:#333399" text-anchor="left" /></g><path style="fill:none; stroke:#000000;stroke-width:1" d="M147.0 110.0 L147.0 263.0 L225.0 263.0" /><polygon style="fill:#000000; stroke:#000000;" points=" 215 258 225 263 215 268 217 263" /><path style="fill:none; stroke:#000000;stroke-width:1" d="M332.0 263.0 L473.0 263.0 L473.0 364.0" /><polygon style="fill:#000000; stroke:#000000;" points=" 478 354 473 364 468 354 473 356" /><path style="fill:none; stroke:#000000;stroke-width:1" d="M526.0 400.0 L629.0 400.0" /><polygon style="fill:#000000; stroke:#000000;" points=" 619 395 629 400 619 405 621 400" /><path style="fill:none; stroke:#000000;stroke-width:1" d="M690.0 400.0 L779.0 400.0" /><polygon style="fill:#000000; stroke:#000000;" points=" 769 395 779 400 769 405 771 400" /><path style="fill:none; stroke:#000000;stroke-width:1" d="M659.0 348.0 L659.0 264.0" /><polygon style="fill:#000000; stroke:#000000;" points=" 654 274 659 264 664 274 659 272" /><path style="fill:none; stroke:#000000;stroke-dasharray:2" d="M795.0 379.0 L796.0 383.0" /><path style="fill:none; stroke:#000000;stroke-dasharray:2" d="M660.0 225.0 L660.0 230.0" /><defs><linearGradient xmlns:xlink="http://www.w3.org/1999/xlink" xlink:href="#linearGradient66FF6696FF96B6FFB6" id="linearGradient66FF6696FF96B6FFB6_1587565715" x1="0" y1="75.0" x2="0" y2="110.0" gradientUnits="userSpaceOnUse" xlink:type="simple" xlink:actuate="onLoad" xlink:show="other" /><linearGradient id="linearGradient66FF6696FF96B6FFB6"><stop style="stop-color:#66FF66;stop-opacity:1;" offset="0.0" id="stop66FF66" /><stop style="stop-color:#96FF96;stop-opacity:1;" offset="0.5" id="stop96FF96" /><stop style="stop-color:#B6FFB6;stop-opacity:1;" offset="1.0" id="stopB6FFB6" /></linearGradient><linearGradient xmlns:xlink="http://www.w3.org/1999/xlink" xlink:href="#linearGradientF8FBFEEDF5FCDEEDFAD4E7F8E2E5E9" id="linearGradientF8FBFEEDF5FCDEEDFAD4E7F8E2E5E9_1348972855" x1="0" y1="229.0" x2="0" y2="335.0" gradientUnits="userSpaceOnUse" xlink:type="simple" xlink:actuate="onLoad" xlink:show="other" /><linearGradient id="linearGradientF8FBFEEDF5FCDEEDFAD4E7F8E2E5E9"><stop style="stop-color:#F8FBFE;stop-opacity:1;" offset="0.0" id="stopF8FBFE" /><stop style="stop-color:#EDF5FC;stop-opacity:1;" offset="0.25" id="stopEDF5FC" /><stop style="stop-color:#DEEDFA;stop-opacity:1;" offset="0.5" id="stopDEEDFA" /><stop style="stop-color:#D4E7F8;stop-opacity:1;" offset="0.75" id="stopD4E7F8" /><stop style="stop-color:#E2E5E9;stop-opacity:1;" offset="1.0" id="stopE2E5E9" /></linearGradient><linearGradient xmlns:xlink="http://www.w3.org/1999/xlink" xlink:href="#linearGradientF8FBFEEDF5FCDEEDFAD4E7F8E2E5E9" id="linearGradientF8FBFEEDF5FCDEEDFAD4E7F8E2E5E9_1415069667" x1="0" y1="365.0" x2="0" y2="471.0" gradientUnits="userSpaceOnUse" xlink:type="simple" xlink:actuate="onLoad" xlink:show="other" /><linearGradient xmlns:xlink="http://www.w3.org/1999/xlink" xlink:href="#linearGradientFAFBFCFFFFCC" id="linearGradientFAFBFCFFFFCC_291158796" x1="0" y1="349.0" x2="0" y2="409.0" gradientUnits="userSpaceOnUse" xlink:type="simple" xlink:actuate="onLoad" xlink:show="other" /><linearGradient id="linearGradientFAFBFCFFFFCC"><stop style="stop-color:#FAFBFC;stop-opacity:1;" offset="0.0" id="stopFAFBFC" /><stop style="stop-color:#FFFFCC;stop-opacity:1;" offset="1.0" id="stopFFFFCC" /></linearGradient><linearGradient xmlns:xlink="http://www.w3.org/1999/xlink" xlink:href="#linearGradientFF6666FF9696FFB6B6" id="linearGradientFF6666FF9696FFB6B6_1300394360" x1="0" y1="383.0" x2="0" y2="418.0" gradientUnits="userSpaceOnUse" xlink:type="simple" xlink:actuate="onLoad" xlink:show="other" /><linearGradient id="linearGradientFF6666FF9696FFB6B6"><stop style="stop-color:#FF6666;stop-opacity:1;" offset="0.0" id="stopFF6666" /><stop style="stop-color:#FF9696;stop-opacity:1;" offset="0.5" id="stopFF9696" /><stop style="stop-color:#FFB6B6;stop-opacity:1;" offset="1.0" id="stopFFB6B6" /></linearGradient><linearGradient xmlns:xlink="http://www.w3.org/1999/xlink" xlink:href="#linearGradientFF6666FF9696FFB6B6" id="linearGradientFF6666FF9696FFB6B6_536973302" x1="0" y1="230.0" x2="0" y2="265.0" gradientUnits="userSpaceOnUse" xlink:type="simple" xlink:actuate="onLoad" xlink:show="other" /></defs></svg>
